<?xml version="1.0" encoding="UTF-8"?>
<svg id="Layer_1" data-name="Layer 1" xmlns="http://www.w3.org/2000/svg" viewBox="0 0 512.1 512.07">
  <defs>
    <style>
      .cls-1 {
        fill: #7022d6;
      }
    </style>
  </defs>
  <path class="cls-1" d="m495.48,16.35c-30.72-30.76-88.13-18.07-170.65,37.67-21.63-7.4-44.82-11.43-68.93-11.43-117.63-.02-213.33,95.68-213.33,213.31,0,24.11,4.03,47.3,11.43,68.93C-1.72,407.37-14.41,464.73,16.35,495.48c11.05,11.07,25.24,16.6,42.73,16.6,25.69,0,58.5-11.97,99.03-35.95,9.37-5.55,19.01-11.69,28.86-18.33,21.63,7.4,44.82,11.43,68.95,11.43,117.63,0,213.33-95.7,213.33-213.33,0-24.11-4.03-47.32-11.43-68.95,6.63-9.86,12.76-19.5,18.3-28.86,40.34-68.1,46.68-114.47,19.37-141.76l-.02.02Zm-239.57,90.22c54.51,0,102.29,29.38,128.36,73.13-24.38,32.62-56.04,69.74-95.45,109.14s-76.52,71.06-109.14,95.45c-43.73-26.07-73.11-73.86-73.11-128.36,0-82.35,67.01-149.33,149.33-149.33v-.02ZM64.2,447.88c1.43-9.64,7.57-28.91,25.05-58.97,9.92,12.39,21.18,23.66,33.58,33.6-26.69,15.7-47.04,23.98-58.62,25.37Zm192.21-42.65c25.77-21.5,51.97-45.46,77.65-71.15,25.69-25.69,49.66-51.88,71.17-77.65-.28,81.94-66.9,148.52-148.82,148.8ZM388.92,89.25c30.06-17.47,49.32-23.62,58.97-25.05-1.39,11.58-9.69,31.94-25.37,58.65-9.92-12.39-21.18-23.66-33.58-33.58l-.02-.02Z"/>
</svg>